{"title":"Bates Motel S05E10 PROPER 720p HDTV HEVC 2CH x265","magnet":"magnet:?xt=urn:btih:52b32172040c1709050997bbc7b3792a048fc2d4&dn=Bates+Motel+S05E10+PROPER+720p+HDTV+HEVC+2CH+x265&tr=udp%3A%2F%2Ftracker.leechers-paradise.org%3A6969&tr=udp%3A%2F%2Fzer0day.ch%3A1337&tr=udp%3A%2F%2Fopen.demonii.com%3A1337&tr=udp%3A%2F%2Ftracker.coppersurfer.tk%3A6969&tr=udp%3A%2F%2Fexodus.desync.com%3A6969","uploader":"Browse nayhtut","categoryP":"video","categoryS":"hd___tv_shows","size":"368269239","seeders":"31","leechers":"4","description":"Source: Bates Motel S05E10 PROPER 720p HDTV x264-SVA (875 MiB)\r\n\r\n\r\nComplete name: Bates.Motel.S05E10.PROPER.720p.HDTV.HEVC.2CH.x265.mkv\r\nFormat                                   : Matroska\r\nFormat version                           : Version 4 / Version 2\r\nFile size                                : 351 MiB\r\nDuration                                 : 43mn 20s\r\nOverall bit rate                         : 1 133 Kbps\r\nWriting application                      : Lavf57.25.100\r\n\r\nVideo\r\n\r\nID                                       : 1\r\nFormat                                   : V_MPEGH/ISO/HEVC\r\nDuration                                 : 43mn 20s\r\nBit rate                                 : 887 Kbps\r\nWidth                                    : 1 280 pixels\r\nHeight                                   : 720 pixels\r\nDisplay aspect ratio                     : 16:9\r\nFrame rate                               : 25.000 fps\r\nBits/(Pixel*Frame)                       : 0.038\r\nStream size                              : 275 MiB (78%)\r\nDefault                                  : Yes\r\nForced                                   : No\r\nDURATION                                 : 00:43:20.091000000\r\n\r\nAudio\r\n\r\nID                                       : 2\r\nFormat                                   : AC-3\r\nFormat/Info                              : Audio Coding 3\r\nMode extension                           : CM (complete main)\r\nFormat settings, Endianness              : Big\r\nCodec ID                                 : A_AC3\r\nDuration                                 : 43mn 20s\r\nBit rate mode                            : Constant\r\nBit rate                                 : 224 Kbps\r\nChannel(s)                               : 2 channels\r\nChannel positions                        : Front: L R\r\nSampling rate                            : 48.0 KHz\r\nBit depth                                : 32 bits\r\nCompression mode                         : Lossy\r\nStream size                              : 69.4 MiB (20%)\r\nWriting library                          : Lavc57.24.102 ac3\r\nDefault                                  : Yes\r\nForced                                   : No\r\nDURATION                                 : 00:43:20.127000000","last_updated":"2017-04-25T12:48:05.485Z","parsed":{"xt":"urn:btih:52b32172040c1709050997bbc7b3792a048fc2d4","dn":"Bates Motel S05E10 PROPER 720p HDTV HEVC 2CH x265","tr":["udp://exodus.desync.com:6969","udp://open.demonii.com:1337","udp://tracker.coppersurfer.tk:6969","udp://tracker.leechers-paradise.org:6969","udp://zer0day.ch:1337"],"infoHash":"52b32172040c1709050997bbc7b3792a048fc2d4","infoHashBuffer":{"type":"Buffer","data":[82,179,33,114,4,12,23,9,5,9,151,187,199,179,121,42,4,143,194,212]},"name":"Bates Motel S05E10 PROPER 720p HDTV HEVC 2CH x265","announce":["udp://exodus.desync.com:6969","udp://open.demonii.com:1337","udp://tracker.coppersurfer.tk:6969","udp://tracker.leechers-paradise.org:6969","udp://zer0day.ch:1337"],"urlList":[]}}